<?xml version="1.0" standalone="no"?>
<!DOCTYPE svg PUBLIC "-//W3C//DTD SVG 20010904//EN"
 "http://www.w3.org/TR/2001/REC-SVG-20010904/DTD/svg10.dtd">
<svg version="1.0" xmlns="http://www.w3.org/2000/svg"
 width="400.000000pt" height="400.000000pt" viewBox="0 0 400.000000 400.000000"
 preserveAspectRatio="xMidYMid meet">
<metadata>
Created by potrace 1.14, written by Peter Selinger 2001-2017
</metadata>
<g transform="translate(0.000000,400.000000) scale(0.100000,-0.100000)"
fill="#000000" stroke="none">
<path d="M0 3709 c0 -191 3 -288 10 -284 5 3 10 16 10 29 0 12 3 26 7 30 4 4
9 19 11 33 5 37 19 61 41 68 15 4 20 17 23 55 3 43 0 50 -15 50 -11 0 -17 5
-14 13 2 6 10 11 16 10 6 -2 11 2 11 7 0 6 -8 10 -17 11 -10 0 -3 6 16 13 19
7 37 19 40 27 2 7 17 27 34 43 33 34 50 71 42 96 -4 13 2 19 24 23 30 6 57 39
46 57 -4 6 -65 10 -146 10 l-139 0 0 -291z"/>
<path d="M687 3989 c9 -9 27 -15 54 -18 4 -1 9 -12 11 -26 5 -22 -5 -39 -22
-40 -20 -1 -70 -52 -70 -71 0 -43 18 -74 43 -74 27 0 50 38 37 60 -5 8 -6 18
-4 22 9 15 23 8 26 -12 5 -36 23 -26 33 18 7 35 13 42 29 40 15 -2 23 -13 27
-38 3 -19 13 -55 22 -79 9 -25 14 -48 11 -53 -10 -15 28 -58 52 -58 23 0 28 9
25 38 -1 8 11 12 34 12 29 0 38 -5 42 -21 3 -11 9 -16 12 -11 12 19 48 23 55
7 4 -13 1 -15 -14 -10 -17 5 -21 1 -26 -24 -4 -17 -10 -28 -15 -25 -5 3 -9 -2
-9 -11 0 -9 5 -13 10 -10 13 8 13 -75 -1 -95 -8 -12 -9 -12 -7 5 2 14 -3 20
-17 21 -11 1 -35 8 -52 18 -40 20 -59 20 -67 1 -3 -8 -11 -15 -18 -15 -16 -1
-58 -35 -58 -48 0 -5 8 -13 18 -17 16 -6 16 -7 0 -19 -10 -7 -18 -18 -18 -25
0 -6 -7 -11 -15 -11 -8 0 -15 4 -15 10 0 5 -12 13 -26 16 -19 5 -24 12 -21 25
3 11 1 22 -4 25 -5 3 -9 -2 -9 -11 0 -11 -6 -15 -17 -11 -31 9 -76 9 -138 2
-112 -13 -112 -13 -140 -69 -15 -29 -36 -61 -46 -73 -10 -11 -19 -27 -19 -35
-1 -17 -82 -79 -104 -79 -9 0 -20 -8 -25 -19 -6 -10 -24 -21 -40 -24 -22 -5
-36 -17 -50 -46 -11 -21 -25 -41 -31 -43 -11 -3 -42 -100 -41 -128 0 -47 -12
-89 -27 -93 -14 -3 -13 -6 5 -13 21 -9 21 -10 6 -42 -10 -20 -21 -31 -29 -28
-8 3 -14 0 -14 -7 0 -7 -7 -59 -15 -116 -13 -88 -15 -307 -15 -1383 l0 -1278
1088 1 c632 0 1078 4 1065 9 -15 6 -20 15 -16 29 5 21 23 30 23 12 0 -5 23 -8
51 -8 35 1 55 -4 63 -14 6 -8 20 -17 31 -18 11 -2 397 -5 858 -7 l837 -4 0 37
c0 28 -7 43 -27 60 -14 13 -34 23 -43 23 -9 0 -31 11 -49 24 -33 25 -33 25
-10 30 13 4 44 7 69 8 l44 3 -3 -37 c-1 -22 2 -38 8 -38 7 0 11 584 11 1945
l0 1945 -1031 0 c-715 0 -1028 -3 -1024 -10 4 -6 -3 -31 -15 -56 -22 -49 -23
-81 0 -76 7 2 20 0 28 -3 11 -4 12 -8 2 -20 -9 -11 -16 -12 -26 -4 -10 8 -15
5 -20 -16 -4 -15 -2 -31 5 -38 6 -6 11 -20 10 -31 0 -17 -3 -15 -11 7 -10 27
-37 33 -29 6 2 -8 4 -24 5 -37 1 -13 9 -29 19 -36 9 -7 17 -22 17 -32 0 -16
-2 -17 -10 -4 -7 12 -11 8 -16 -17 -4 -18 -13 -33 -20 -33 -20 0 -17 -37 4
-45 9 -4 31 -9 47 -12 24 -4 28 -2 18 8 -20 21 -15 29 17 29 20 0 30 -5 30
-15 0 -8 5 -15 10 -15 6 0 10 -7 10 -15 0 -8 5 -15 10 -15 6 0 10 -6 9 -12 -3
-28 2 -38 19 -38 23 0 42 19 42 43 0 10 14 32 30 49 17 16 30 39 30 51 0 12 4
17 9 11 11 -12 2 -86 -10 -78 -5 3 -9 -10 -9 -29 0 -30 3 -34 20 -30 12 3 22
-1 26 -11 3 -9 15 -16 25 -16 21 0 26 -16 7 -23 -7 -2 1 -2 17 0 48 7 77 25
72 45 -3 10 -1 18 4 18 5 0 18 18 29 40 12 23 27 43 35 47 17 6 20 54 5 69 -6
6 -7 19 -3 30 6 17 8 17 13 -6 7 -28 34 -38 55 -20 12 10 12 15 -1 35 -14 22
-14 25 10 40 14 10 23 22 19 31 -4 12 -1 12 22 0 15 -8 34 -12 41 -9 8 3 14 0
14 -6 0 -8 6 -7 21 1 17 11 20 20 16 61 -2 26 0 50 4 53 5 3 10 -1 10 -8 6
-61 6 -98 -1 -98 -4 0 -10 -9 -13 -20 -3 -11 -12 -20 -21 -20 -19 0 -22 -26
-3 -33 8 -3 5 -12 -10 -29 -24 -25 -31 -58 -13 -58 6 0 10 4 10 9 0 5 8 11 19
14 10 2 25 17 32 33 10 20 23 30 42 32 33 4 38 -22 7 -38 -11 -6 -20 -16 -20
-23 0 -15 -62 -140 -74 -148 -4 -4 -9 -20 -10 -36 -2 -16 -6 -35 -9 -41 -4 -5
-5 -27 -1 -47 3 -20 1 -42 -4 -48 -8 -11 -9 -46 -4 -118 2 -21 9 -28 32 -32
30 -6 40 -29 19 -42 -5 -4 -14 -18 -19 -31 -8 -19 -5 -29 11 -45 23 -23 39
-18 32 11 -4 14 0 20 10 20 8 0 17 6 20 13 2 6 2 -11 -1 -38 -3 -40 0 -59 17
-85 11 -19 21 -45 21 -58 0 -26 26 -40 43 -23 27 27 67 0 81 -53 5 -22 11 -27
26 -23 11 3 18 1 15 -3 -3 -5 9 -11 26 -15 18 -4 34 -3 38 3 8 13 53 19 69 8
17 -10 42 11 42 35 0 11 14 25 34 34 19 9 37 23 40 31 3 8 19 14 36 14 20 0
40 9 57 26 20 20 28 23 34 12 7 -10 12 -11 29 0 29 18 30 17 30 -38 0 -46 -2
-50 -27 -56 -16 -4 -33 -11 -39 -16 -6 -4 -33 -10 -59 -12 -44 -4 -70 -20 -59
-38 10 -15 -17 -48 -39 -48 -34 0 -44 -12 -45 -51 -1 -31 5 -41 38 -68 30 -24
40 -39 40 -61 0 -16 4 -32 10 -35 15 -9 48 13 56 37 4 13 17 37 30 54 13 17
24 36 24 42 0 20 21 24 40 7 15 -13 22 -14 40 -5 17 9 20 17 15 37 -7 31 7 43
52 43 49 0 63 -9 63 -42 0 -21 -6 -31 -20 -35 -12 -3 -20 -14 -20 -27 0 -18
-6 -22 -40 -23 -29 -2 -40 2 -40 13 0 20 -36 18 -44 -3 -15 -41 -32 -63 -46
-63 -11 -1 -9 -4 5 -13 11 -6 47 -12 80 -12 195 -1 225 -4 225 -24 0 -17 -13
-19 -149 -26 -114 -5 -151 -10 -155 -21 -3 -8 -14 -14 -25 -14 -12 0 -20 -9
-23 -25 -5 -25 -4 -25 62 -25 52 0 71 4 83 18 10 10 17 24 17 30 0 8 18 12 48
12 l48 0 -1 -47 c-1 -40 -5 -48 -26 -55 -20 -7 -24 -14 -23 -48 1 -22 4 -44 8
-48 4 -4 36 -5 72 -3 58 3 64 1 64 -17 0 -33 49 -47 107 -30 26 7 58 12 71 10
33 -5 25 -36 -11 -40 -15 -2 -27 -8 -27 -13 0 -12 -37 -12 -45 1 -8 13 -52 13
-60 0 -8 -13 13 -40 31 -40 8 0 14 7 14 15 0 8 5 15 11 15 17 0 5 -34 -16 -45
-32 -16 -64 -48 -59 -57 3 -4 0 -8 -5 -8 -6 0 -2 -9 10 -21 20 -20 59 -19 59
2 0 5 8 9 19 9 22 0 45 25 37 39 -3 5 2 19 12 31 16 20 20 21 25 7 3 -9 2 -19
-3 -22 -5 -3 -7 -11 -4 -18 3 -8 -9 -28 -26 -45 -17 -18 -28 -36 -26 -41 3 -5
-1 -14 -9 -21 -11 -9 -19 -7 -36 9 l-23 21 -23 -22 c-18 -17 -22 -29 -18 -50
6 -24 3 -28 -14 -28 -24 0 -56 -32 -77 -77 -10 -19 -28 -36 -47 -43 -29 -11
-30 -13 -12 -21 15 -7 10 -8 -20 -5 -22 3 -33 2 -24 0 11 -3 15 -12 12 -25 -4
-16 0 -19 28 -20 19 -1 41 -3 49 -4 8 -1 22 -3 31 -4 11 -1 15 -13 15 -50 0
-46 -2 -50 -29 -55 -16 -3 -33 -3 -38 0 -15 9 -10 46 8 60 28 20 7 28 -41 17
-42 -9 -71 -3 -86 17 -9 14 -50 22 -50 10 0 -8 -6 -8 -20 0 -11 6 -20 18 -20
26 0 8 5 12 10 9 6 -3 10 1 10 9 0 9 -7 16 -15 16 -10 0 -15 10 -15 30 0 17 4
30 8 30 4 0 15 13 24 28 9 15 28 34 43 42 53 28 42 95 -12 71 -23 -11 -29 -10
-39 3 -6 9 -23 16 -37 16 -22 0 -25 -4 -25 -35 0 -26 7 -40 25 -55 15 -12 23
-26 19 -35 -6 -17 -36 -21 -36 -4 0 6 -14 26 -32 45 -26 27 -38 33 -62 29 -17
-2 -37 -4 -44 -4 -7 -1 -17 -13 -22 -27 -9 -22 -14 -25 -38 -19 -15 4 -57 10
-94 13 -80 8 -94 18 -38 27 22 4 47 13 54 21 19 18 36 18 36 -1 0 -8 5 -15 10
-15 6 0 10 5 10 10 0 6 6 10 14 10 20 0 39 27 30 42 -13 21 -14 42 -1 51 9 6
9 10 0 13 -6 3 -22 14 -35 26 -12 11 -30 25 -39 32 -10 6 -19 23 -20 36 -3 16
-20 35 -49 55 -74 49 -124 105 -137 155 -7 25 -10 52 -8 60 3 9 -6 27 -20 42
-14 15 -25 32 -25 39 0 8 -11 9 -32 5 -39 -8 -75 18 -56 41 13 16 1 28 -39 39
-36 10 -56 -2 -43 -25 8 -16 6 -21 -13 -27 -12 -5 -26 -7 -32 -5 -21 7 -68 2
-78 -8 -8 -8 -7 -15 1 -23 7 -7 12 -19 12 -28 0 -10 7 -31 15 -48 9 -17 22
-61 29 -99 16 -78 44 -160 57 -169 5 -3 9 -24 9 -48 0 -23 5 -47 10 -52 15
-15 17 -191 3 -239 -32 -111 -43 -218 -32 -320 6 -55 17 -113 25 -129 8 -16
14 -35 14 -43 0 -8 9 -32 20 -53 23 -44 45 -155 54 -269 4 -41 11 -80 17 -88
7 -7 9 -26 6 -42 -5 -22 1 -39 23 -70 17 -23 37 -41 46 -41 8 0 25 -5 37 -12
12 -6 32 -13 45 -14 41 -5 130 -51 136 -72 4 -11 24 -32 46 -47 22 -15 40 -33
40 -40 0 -16 -47 -56 -90 -76 -19 -9 -48 -23 -63 -30 -16 -7 -50 -32 -75 -56
-29 -26 -64 -46 -92 -53 -25 -7 -55 -16 -68 -21 -13 -5 -34 -9 -47 -9 -13 0
-26 -3 -29 -8 -2 -4 -25 -6 -51 -4 -33 3 -43 7 -34 13 12 8 12 10 0 18 -11 7
-140 24 -201 26 -8 0 -20 3 -27 8 -6 4 -18 4 -26 1 -8 -3 -18 -1 -22 5 -3 6
-33 11 -66 11 -46 0 -65 -5 -81 -20 -22 -20 -48 -27 -48 -12 0 4 10 16 22 26
l22 19 -25 10 c-13 5 -29 10 -36 11 -7 1 -15 5 -19 8 -3 4 -12 4 -19 2 -7 -3
-16 -1 -20 5 -3 6 -18 11 -32 11 -14 0 -46 6 -72 14 -25 8 -73 22 -106 31 -33
10 -80 24 -104 31 -25 8 -58 14 -75 14 -17 1 -42 7 -56 15 -14 8 -42 14 -62
15 -20 0 -40 5 -43 10 -3 6 -1 10 4 10 6 0 11 5 11 11 0 6 14 24 30 41 17 16
30 36 30 44 0 8 4 14 8 14 13 0 42 57 42 83 0 29 -24 90 -50 126 -11 14 -21
41 -22 59 -1 17 -6 32 -10 32 -4 0 -8 11 -8 23 0 30 -10 40 -26 26 -9 -7 -15
-2 -23 23 -11 35 -34 59 -64 71 -15 6 -22 31 -18 65 1 6 -2 12 -7 12 -4 0 -16
6 -26 13 -15 11 -16 17 -7 35 7 13 17 19 26 16 12 -5 15 2 15 32 0 34 5 41 36
56 38 19 104 24 120 8 15 -15 95 -22 111 -9 7 7 16 9 20 6 3 -4 12 -2 18 3 9
7 11 31 7 77 -5 64 -4 66 17 60 11 -3 21 -1 21 4 0 5 -9 9 -20 9 -11 0 -23 7
-26 15 -5 11 -22 15 -64 15 -44 0 -61 4 -75 20 -10 11 -20 18 -24 16 -7 -5
-32 20 -31 31 0 5 -11 9 -25 11 -31 4 -33 19 -2 25 21 4 21 4 -3 6 -23 2 -24
3 -5 11 20 8 19 9 -1 9 -12 1 -42 12 -67 26 -36 21 -46 32 -51 60 -7 36 -42
78 -58 69 -4 -3 -8 3 -8 13 0 10 -9 33 -20 51 -21 34 -27 92 -11 92 6 0 6 12
0 30 -6 16 -9 35 -6 42 6 16 -29 76 -60 104 -13 11 -27 33 -32 50 -5 20 -15
30 -32 32 -13 2 -29 8 -35 13 -6 5 -43 12 -83 15 -66 6 -73 9 -86 35 -8 15
-12 34 -9 42 3 8 -2 17 -10 20 -9 4 -13 13 -10 22 4 10 -4 25 -22 40 -19 16
-24 25 -14 25 12 0 12 2 2 9 -10 6 -10 10 3 21 16 14 20 46 6 54 -4 3 -6 17
-3 31 2 14 0 25 -6 25 -6 0 -16 24 -23 54 -10 46 -9 58 5 86 9 18 16 46 16 62
0 15 9 37 20 48 24 24 26 53 5 70 -8 7 -15 19 -15 26 0 8 -7 14 -16 14 -14 0
-15 8 -9 48 4 26 13 54 21 63 8 9 17 27 19 39 2 13 13 33 23 44 22 24 42 60
42 75 0 6 -12 11 -27 11 -27 1 -27 1 -8 16 11 8 30 12 43 9 19 -5 22 -2 22 25
0 27 2 30 25 24 16 -4 25 -2 25 5 0 7 10 16 23 21 18 7 19 9 3 9 -12 1 -16 6
-12 17 3 9 6 17 6 20 0 2 12 -1 26 -6 39 -15 44 -13 44 20 0 34 5 37 26 15 9
-8 12 -15 7 -15 -4 0 -14 -9 -21 -20 -10 -17 -10 -23 2 -35 8 -8 22 -15 30
-15 18 0 22 25 6 35 -7 4 -8 11 -1 18 5 7 10 15 10 20 1 4 4 7 9 7 4 0 7 -3 7
-7 1 -24 21 -33 73 -33 79 0 102 8 102 34 0 12 5 27 12 34 9 9 9 12 0 12 -7 0
-12 6 -12 13 0 9 10 12 30 9 26 -4 30 -1 30 20 0 20 5 25 23 23 37 -5 81 -25
101 -47 19 -20 20 -20 26 -2 9 24 1 56 -12 48 -5 -3 -12 3 -15 14 -7 28 -47
36 -78 16 -24 -16 -25 -15 -35 11 -6 15 -15 23 -21 19 -6 -3 -24 3 -40 15 -15
11 -35 21 -43 21 -24 0 -28 18 -6 32 24 15 26 28 5 28 -24 0 -17 16 12 29 19
9 29 9 31 2 8 -23 21 -10 20 19 -1 17 -5 30 -10 30 -5 0 -4 9 2 19 5 11 10 40
10 64 0 38 -3 46 -22 51 -21 5 -21 7 -6 18 9 7 18 30 20 51 l4 37 -58 0 c-32
0 -68 -6 -79 -12 -17 -10 -23 -10 -26 0 -4 9 -51 12 -191 12 -132 0 -183 -3
-175 -11z m363 -46 c0 -26 -37 -50 -52 -35 -6 6 0 12 16 16 18 4 26 13 26 27
0 21 -15 22 -64 3 -9 -3 -16 -1 -16 5 0 6 10 11 23 11 12 0 29 4 37 10 17 11
30 -4 30 -37z m-200 -7 c0 -15 -38 -29 -53 -19 -5 3 1 12 14 19 31 17 39 17
39 0z m1810 -21 c0 -12 -19 -12 -23 0 -4 9 -1 12 9 8 7 -3 14 -7 14 -8z
m-1639 -45 c23 -13 25 -45 3 -54 -10 -4 -15 -16 -14 -33 4 -50 0 -63 -15 -63
-8 0 -15 7 -15 15 0 8 -5 15 -11 15 -6 0 -4 7 5 15 15 16 12 45 -5 45 -5 0 -9
7 -9 15 0 8 -5 15 -10 15 -6 0 -5 8 2 20 14 22 39 26 69 10z m124 -127 c-15
-9 -23 -9 -34 0 -12 10 -12 12 2 15 10 2 17 11 17 21 0 9 6 23 13 30 10 10 13
6 17 -21 4 -26 1 -35 -15 -45z m1435 57 c0 -13 -7 -20 -20 -20 -19 0 -27 20
-13 33 13 14 33 6 33 -13z m205 -219 c18 -7 17 -9 -12 -24 -32 -17 -83 -23
-83 -10 0 3 7 15 17 25 17 19 44 22 78 9z m-495 -70 c0 -4 -13 -12 -30 -18
-22 -8 -33 -8 -47 2 -17 12 -16 14 7 33 22 18 26 18 47 5 13 -9 23 -18 23 -22z
m529 -13 c1 -5 -11 -8 -25 -8 -19 0 -25 4 -20 15 3 10 -1 15 -12 16 -9 1 -3 4
13 8 28 6 42 -3 44 -31z m-1894 2 c3 -5 1 -10 -4 -10 -6 0 -11 5 -11 10 0 6 2
10 4 10 3 0 8 -4 11 -10z m1738 -7 c-7 -2 -19 -2 -25 0 -7 3 -2 5 12 5 14 0
19 -2 13 -5z m177 -93 c0 -5 -7 -10 -16 -10 -8 0 -12 5 -9 10 3 6 10 10 16 10
5 0 9 -4 9 -10z m568 -438 c-4 -23 -59 -35 -77 -18 -25 25 -7 42 38 38 32 -3
41 -8 39 -20z m-554 8 c18 -6 26 -6 26 1 0 6 5 7 11 3 14 -9 -3 -19 -74 -43
-35 -12 -60 -15 -75 -10 l-23 9 28 25 c30 26 66 31 107 15z m676 -290 c0 -25
-17 -35 -35 -20 -20 17 -19 38 3 43 24 5 32 -1 32 -23z m-3 -62 c-3 -8 -6 -5
-6 6 -1 11 2 17 5 13 3 -3 4 -12 1 -19z m-87 -18 c0 -5 -10 -10 -22 -9 -22 0
-22 1 -3 9 11 5 21 9 23 9 1 1 2 -3 2 -9z m-981 -129 c15 -10 7 -31 -13 -31
-8 0 -19 6 -25 13 -19 23 9 36 38 18z m-62 -23 c-3 -8 -6 -5 -6 6 -1 11 2 17
5 13 3 -3 4 -12 1 -19z m163 -48 c0 -12 -48 -25 -58 -16 -8 9 18 26 41 26 9 0
17 -4 17 -10z m1140 -244 c0 -3 -4 -8 -10 -11 -5 -3 -10 -1 -10 4 0 6 5 11 10
11 6 0 10 -2 10 -4z m-1090 -76 c0 -5 -4 -10 -10 -10 -5 0 -10 5 -10 10 0 6 5
10 10 10 6 0 10 -4 10 -10z m53 -12 c6 -20 -6 -37 -26 -38 -14 0 -21 34 -8 38
11 4 11 6 0 13 -11 6 -9 9 7 9 14 0 24 -8 27 -22z m37 -78 c0 -12 -28 -25 -36
-17 -9 9 6 27 22 27 8 0 14 -5 14 -10z m1014 -4 c19 7 59 -36 47 -50 -6 -7 -8
-16 -4 -19 3 -4 -16 -7 -43 -6 -38 1 -44 3 -24 9 l25 7 -27 11 c-16 6 -28 16
-28 22 0 18 24 39 34 30 5 -5 14 -6 20 -4z m38 -111 c-2 -11 -8 -22 -14 -24
-5 -2 -13 -13 -18 -25 -8 -23 -33 -28 -58 -12 -8 5 -25 11 -40 15 -25 7 -25 7
13 26 22 10 46 24 54 32 7 8 25 13 40 11 20 -2 25 -8 23 -23z m-712 -5 c0 -5
-9 -10 -20 -10 -11 0 -20 5 -20 10 0 6 9 10 20 10 11 0 20 -4 20 -10z m840
-14 c0 -2 -11 -6 -25 -8 -14 -3 -25 -1 -25 3 0 5 11 9 25 9 14 0 25 -2 25 -4z
m-32 -80 c6 -27 -12 -39 -47 -31 l-30 6 27 24 c30 27 45 27 50 1z m-153 -6 c9
8 14 7 18 -4 4 -9 -2 -17 -14 -21 -25 -8 -27 -72 -1 -91 16 -13 16 -15 0 -27
-11 -9 -14 -22 -11 -41 6 -28 19 -31 64 -12 12 5 19 0 26 -21 17 -47 -13 -97
-43 -73 -12 10 -19 8 -38 -13 -33 -36 -78 -25 -87 21 -4 18 -4 32 0 32 3 0 12
9 19 21 11 18 11 23 -5 35 -10 7 -31 14 -48 14 -53 1 -59 15 -13 30 24 8 54
14 68 15 23 0 25 4 27 50 3 60 14 105 20 87 4 -9 9 -10 18 -2z m68 -152 l-10
-23 -12 23 c-9 17 -9 27 0 44 l12 23 10 -23 c7 -14 7 -30 0 -44z m-2243 -88
c0 -5 -5 -10 -11 -10 -5 0 -7 5 -4 10 3 6 8 10 11 10 2 0 4 -4 4 -10z m1777
-16 c-9 -9 -28 6 -21 18 4 6 10 6 17 -1 6 -6 8 -13 4 -17z m223 11 c0 -8 -6
-15 -14 -15 -17 0 -28 14 -19 24 12 12 33 6 33 -9z m-97 -50 c-3 -16 -58 -23
-77 -10 -27 20 -18 26 32 23 26 -2 46 -7 45 -13z m-1953 -25 c0 -5 -7 -10 -16
-10 -8 0 -12 5 -9 10 3 6 10 10 16 10 5 0 9 -4 9 -10z m2489 -682 c1 -5 -3 -8
-8 -8 -12 0 -22 30 -14 43 6 10 20 -13 22 -35z m-287 -115 c13 -17 45 -17 51
0 3 9 9 9 23 1 14 -8 20 -25 22 -60 2 -27 7 -53 12 -59 5 -6 7 -20 4 -32 -3
-11 -1 -24 5 -27 6 -4 11 -18 11 -30 0 -21 -4 -23 -39 -20 -22 1 -48 7 -60 13
-11 6 -22 7 -25 2 -3 -5 -20 -8 -38 -6 -25 2 -33 7 -33 21 0 14 9 20 35 22 19
2 39 10 43 18 4 8 17 14 28 14 12 0 19 5 16 13 -2 6 -10 11 -16 9 -6 -1 -15 8
-20 20 -14 34 -49 68 -72 68 -11 0 -27 7 -35 15 -18 17 -34 20 -34 5 0 -5 -11
-10 -25 -10 -19 0 -25 5 -25 20 0 20 5 21 81 18 49 -2 85 -8 91 -15z m-248
-235 c8 -31 7 -38 -3 -38 -5 0 -11 8 -15 18 -3 9 -9 23 -12 30 -3 6 1 12 9 12
8 0 17 -10 21 -22z m442 -33 c23 -19 47 -35 52 -35 6 0 24 -12 41 -26 40 -34
42 -70 4 -77 -16 -3 -34 -1 -41 5 -6 6 -29 8 -50 5 -50 -8 -147 14 -147 33 0
9 8 14 20 13 11 -2 42 0 68 3 42 5 48 9 45 28 -2 11 -8 21 -15 21 -15 0 -19 5
-27 38 -8 35 -2 34 50 -8z m-460 -19 c8 -8 11 -22 8 -31 -8 -21 41 -95 64 -95
23 0 42 19 42 43 0 16 5 18 33 12 48 -11 51 -15 26 -41 -21 -22 -22 -28 -11
-57 7 -19 12 -41 12 -50 0 -9 9 -24 19 -34 14 -13 17 -23 11 -33 -8 -13 -10
-13 -10 1 0 8 -18 28 -39 45 -22 16 -44 39 -50 51 -6 14 -23 24 -45 29 -23 4
-38 13 -42 26 -4 12 -11 17 -21 14 -9 -4 -22 -1 -31 6 -8 7 -18 12 -21 10 -3
-2 -7 1 -9 6 -2 6 6 13 18 17 13 4 19 12 16 21 -6 15 3 74 11 74 2 0 11 -6 19
-14z m-1286 -24 c-25 -4 -35 2 -26 17 5 7 13 7 27 -2 20 -12 20 -12 -1 -15z
m1593 -16 c3 -8 3 -17 0 -20 -9 -9 -34 15 -27 25 8 13 21 11 27 -5z m-93 -127
c0 -28 -15 -23 -18 7 -1 14 2 23 8 19 6 -3 10 -15 10 -26z m210 -24 c0 -8 -7
-15 -15 -15 -16 0 -20 12 -8 23 11 12 23 8 23 -8z m-170 -126 c0 -7 8 -18 18
-26 9 -8 2 -6 -15 3 -35 19 -43 34 -18 34 8 0 15 -5 15 -11z m137 -21 c-3 -8
-6 -5 -6 6 -1 11 2 17 5 13 3 -3 4 -12 1 -19z"/>
<path d="M1295 3990 c3 -5 12 -10 20 -10 8 0 17 5 20 10 4 6 -5 10 -20 10 -15
0 -24 -4 -20 -10z"/>
<path d="M1413 3987 c-24 -8 -33 -17 -33 -33 0 -23 -17 -34 -51 -34 -24 0 -35
-25 -19 -45 6 -8 9 -23 5 -36 -5 -14 -2 -25 6 -31 11 -7 11 -11 2 -15 -7 -2
-13 -11 -13 -19 0 -20 30 -30 40 -14 6 9 20 10 56 4 43 -8 49 -12 52 -37 2
-15 -1 -27 -7 -27 -13 0 -14 -44 -2 -68 5 -9 12 -25 15 -34 9 -30 26 -20 26
16 0 44 21 63 43 38 24 -26 95 -23 114 5 14 21 13 22 -19 31 -21 5 -34 15 -35
28 -2 10 0 13 3 6 5 -10 10 -9 25 4 12 11 34 18 55 17 29 -1 34 2 29 15 -12
32 -10 36 25 42 l35 5 -3 55 c-4 55 -3 56 35 76 24 13 38 27 38 39 0 19 -9 20
-195 21 -116 1 -208 -3 -227 -9z m91 -88 c-3 -5 -10 -7 -15 -3 -5 3 -7 10 -3
15 3 5 10 7 15 3 5 -3 7 -10 3 -15z"/>
<path d="M1850 3984 c0 -17 22 -14 28 4 2 7 -3 12 -12 12 -9 0 -16 -7 -16 -16z"/>
<path d="M793 3768 c-4 -7 -12 -26 -18 -43 -6 -19 -23 -36 -45 -46 -34 -17
-56 -16 -45 1 3 4 -2 13 -10 20 -21 17 -85 -5 -85 -30 0 -10 -7 -25 -15 -34
-29 -29 -19 -46 28 -45 23 0 36 3 30 6 -15 6 -17 33 -3 33 6 0 11 8 11 18 1
15 11 -18 26 -90 3 -15 9 -25 14 -22 5 3 15 2 22 -3 6 -4 21 -9 32 -10 10 -2
22 -8 26 -14 5 -8 8 -8 13 0 4 6 0 14 -8 17 -19 7 -21 30 -5 40 7 4 16 -1 21
-10 14 -26 43 -4 46 36 2 18 7 37 12 42 13 13 13 49 1 42 -5 -4 -7 2 -4 12 6
25 -10 85 -24 89 -6 2 -15 -2 -20 -9z m-10 -153 c-3 -10 1 -15 12 -15 9 0 13
-5 10 -10 -10 -16 -35 8 -35 32 0 10 4 17 10 13 5 -3 7 -12 3 -20z"/>
<path d="M1324 3705 c-4 -8 -3 -23 0 -32 6 -15 8 -15 23 -1 16 17 12 48 -7 48
-6 0 -13 -7 -16 -15z"/>
<path d="M940 3612 c0 -28 6 -30 50 -18 51 13 46 30 -8 34 -36 3 -42 0 -42
-16z"/>
<path d="M1547 3613 c-14 -13 -6 -28 22 -45 25 -14 30 -14 35 -2 3 8 -1 14 -9
14 -8 0 -20 9 -28 20 -8 11 -17 17 -20 13z"/>
<path d="M1960 3511 c0 -6 5 -13 10 -16 6 -3 10 1 10 9 0 9 -4 16 -10 16 -5 0
-10 -4 -10 -9z"/>
<path d="M1270 3480 c0 -6 -9 -10 -20 -10 -26 0 -26 -27 1 -35 23 -8 17 -20
-9 -20 -10 0 -17 -8 -17 -20 0 -16 6 -19 30 -17 17 1 37 5 45 8 13 4 13 6 0
14 -11 7 -6 10 20 10 25 0 31 3 23 11 -6 6 -9 17 -7 23 3 7 -11 20 -31 29 -19
9 -35 12 -35 7z"/>
<path d="M2225 3400 c-19 -7 -19 -8 -2 -15 19 -8 31 -2 26 13 -2 5 -13 6 -24
2z"/>
<path d="M1060 3350 c12 -23 35 -22 35 1 0 8 -10 15 -23 17 -21 3 -22 1 -12
-18z"/>
<path d="M870 3310 c0 -6 7 -10 15 -10 8 0 15 2 15 4 0 2 -7 6 -15 10 -8 3
-15 1 -15 -4z"/>
<path d="M1646 3260 c12 -12 27 -21 33 -19 16 6 -1 25 -29 34 l-25 7 21 -22z"/>
<path d="M1715 3220 c10 -11 25 -20 34 -20 12 1 10 5 -8 20 -30 26 -49 26 -26
0z"/>
<path d="M1770 3172 c0 -15 44 -49 70 -55 28 -7 59 7 46 20 -5 4 -11 2 -13 -4
-8 -21 -23 -15 -23 9 0 12 -3 19 -6 15 -4 -3 -19 0 -35 8 -32 17 -39 18 -39 7z"/>
<path d="M1856 3095 c-11 -8 -15 -15 -9 -15 20 0 131 -117 148 -156 9 -22 23
-54 31 -71 7 -18 18 -33 24 -33 5 0 10 -5 10 -11 0 -18 45 -66 58 -61 7 2 15
-3 18 -12 3 -9 10 -16 16 -16 5 0 6 5 3 10 -3 6 1 10 9 10 27 0 28 20 2 31
-15 7 -30 26 -36 45 -6 18 -18 38 -26 44 -7 7 -14 19 -14 27 0 8 -11 29 -25
47 -14 18 -25 43 -25 56 0 19 -4 21 -25 16 -32 -8 -34 15 -3 46 l21 21 -37 -6
c-26 -4 -39 -2 -42 8 -3 7 -16 16 -29 19 -13 3 -29 8 -37 11 -7 2 -22 -2 -32
-10z"/>
<path d="M2560 2990 c-26 -22 -22 -32 15 -37 16 -2 28 3 35 17 22 40 -11 54
-50 20z"/>
<path d="M1790 2917 c-32 -20 -33 -22 -12 -25 12 -2 22 -9 22 -16 0 -15 96
-48 135 -45 17 1 37 -1 46 -5 10 -4 20 -3 24 3 3 6 1 11 -4 11 -6 0 -11 6 -11
14 0 8 -15 25 -32 37 -18 13 -36 27 -39 32 -3 5 -26 10 -50 12 -32 3 -53 -2
-79 -18z"/>
<path d="M1114 2811 c-36 -22 -51 -59 -25 -60 57 -2 118 -9 133 -15 22 -10 38
0 38 25 0 16 5 18 26 13 22 -6 25 -4 22 12 -8 45 -135 61 -194 25z"/>
<path d="M1679 2516 c-26 -35 -39 -44 -55 -40 -19 5 -22 2 -20 -25 2 -43 17
-54 60 -46 30 6 35 11 31 26 -9 27 28 43 67 30 37 -13 79 -4 97 21 9 14 20 18
36 14 25 -6 39 13 29 39 -13 33 -58 12 -66 -30 -5 -30 -42 -26 -46 5 -6 38
-21 50 -62 50 -33 0 -42 -6 -71 -44z"/>
<path d="M1909 2334 c-10 -12 -23 -14 -51 -10 -27 4 -41 2 -50 -10 -35 -42
-120 -124 -140 -135 -21 -11 -21 -12 -3 -25 30 -22 103 -17 150 11 46 26 104
26 126 -2 10 -11 14 -10 24 9 6 13 18 22 27 22 10 -1 14 4 11 12 -7 19 14 18
24 -1 6 -11 16 -12 38 -7 36 10 45 38 16 47 -12 3 -21 10 -21 15 0 19 -63 70
-86 70 -13 0 -24 5 -24 10 0 16 -26 12 -41 -6z"/>
<path d="M3185 2240 c3 -5 8 -10 11 -10 2 0 4 5 4 10 0 6 -5 10 -11 10 -5 0
-7 -4 -4 -10z"/>
<path d="M3227 2224 c9 -24 -28 -44 -77 -43 -72 1 -80 0 -80 -16 0 -13 17 -20
41 -17 14 2 16 -37 2 -42 -52 -20 65 -34 142 -17 25 5 27 8 14 16 -8 6 -18 18
-22 28 -5 12 -1 17 13 17 33 0 26 51 -9 72 -25 13 -29 14 -24 2z"/>
<path d="M2946 2131 c-3 -5 1 -11 9 -15 9 -3 15 0 15 9 0 16 -16 20 -24 6z"/>
<path d="M3385 2121 c-3 -5 -1 -12 5 -16 5 -3 10 1 10 9 0 18 -6 21 -15 7z"/>
<path d="M3055 2100 c3 -5 10 -10 16 -10 5 0 9 5 9 10 0 6 -7 10 -16 10 -8 0
-12 -4 -9 -10z"/>
<path d="M3100 2015 c-11 -13 -5 -15 48 -15 34 0 63 4 67 9 3 6 -8 8 -29 4
-19 -3 -36 -1 -40 6 -10 16 -31 14 -46 -4z"/>
<path d="M3035 1980 c-3 -5 -1 -18 4 -27 9 -16 10 -14 11 10 0 28 -5 34 -15
17z"/>
<path d="M3373 1954 c-5 -13 -7 -13 -14 -2 -6 9 -9 6 -9 -10 0 -32 44 -27 48
6 4 25 -15 30 -25 6z"/>
</g>
</svg>
